<svg xmlns:xlink="http://www.w3.org/1999/xlink" xmlns="http://www.w3.org/2000/svg" viewBox="0 0 644 68" id="icon-logo" width="100%" height="100%">  <path d="M507.1,62.7c-2.1,2.1-6.1,3.2-12,3.2h-45.1c-5.9,0-9.9-1.1-12.1-3.2c-2.2-2.2-3.2-6.2-3.2-12.2V16.1c0-6,1.1-10,3.2-12.2  c2.2-2.2,6.2-3.2,12.1-3.2h45.1c5.9,0,9.9,1.1,12,3.2c2.1,2.2,3.2,6.2,3.2,12.2v34.4C510.3,56.5,509.2,60.5,507.1,62.7z M499.4,9.4  h-53.8v47.4h53.8V9.4z M345.9,20.5c-1.8-1.7-2.9-2.6-3.1-2.9c-1.4-1.4-2.5-2.8-3.4-4.4c0.5,3.9,0.8,8.6,0.8,14.3v38.4h-10.1V0.7h6.8  l48.6,43.6c2.4,2.1,4.8,4.8,7.4,8.2c-0.7-4-1-9.4-1-16.1V0.7H402v65.3h-6L345.9,20.5z M285.5,0.7h10.8v65.3h-10.8V0.7z M237.4,65.9  h-37.9c-5.9,0-9.9-1.1-12-3.2c-2.2-2.2-3.2-6.2-3.2-12.2v-1.8l10.1-2.4v10.5h48.4V37.2h-40.8c-5.8,0-9.8-1.1-11.9-3.2  c-2.1-2.2-3.2-6.2-3.2-12.2v-5.7c0-6.1,1.1-10.2,3.2-12.3c2.2-2.1,6.1-3.2,11.9-3.2h34.7c5.5,0,9.5,1,11.8,3c2.3,2,3.5,5.7,3.5,11.2  v1.4l-9.3,2.7V9.4h-46v18.3h41c5.9,0,9.9,1.1,12,3.3c2.1,2.2,3.1,6.2,3.1,12.2v7.3c0,6-1,10.1-3.1,12.2  C247.3,64.8,243.3,65.9,237.4,65.9z M145.7,49.8h-44l-8.3,16.1H82.7l35.5-65.3h11.6L166,65.9h-12L145.7,49.8z M123.8,8.1l-17.5,33.4  h35L123.8,8.1z M51.7,65.9H15.3c-5.9,0-9.9-1.1-12-3.2C1.1,60.5,0,56.5,0,50.5V16.1c0-6,1.1-10,3.2-12.2c2.2-2.2,6.2-3.2,12-3.2  h36.4c5.9,0,9.9,1,12,3.1s3.1,6.1,3.1,12.2v6.2l-10.8,2V9.4H10.8v47.4H56V40.5l10.8,2.3v7.7c0,6.1-1,10.2-3.1,12.3  C61.6,64.9,57.6,65.9,51.7,65.9z"></path>  <path d="M552.3,42.3v-9.2h-27.5v9.2H552.3z"></path>  <path d="M577.2,65.4l22.1-25.5l24,25.5H644l-35.3-35.5l28.6-30.2h-17.5l-19.9,22.3L578.9-0.4h-20.2l31.6,32l-31.1,33.8H577.2z"></path>  <path d="M507.1,64.4c-2.1,2.2-6.1,3.2-12,3.2h-45.1c-5.9,0-9.9-1.1-12.1-3.2c-2.2-2.2-3.2-6.2-3.2-12.2V17.8c0-6,1.1-10.1,3.2-12.2  c2.2-2.2,6.2-3.2,12.1-3.2h45.1c5.9,0,9.9,1.1,12,3.2c2.1,2.1,3.2,6.2,3.2,12.2v34.4C510.3,58.2,509.2,62.2,507.1,64.4z M499.4,11.1  h-53.8v47.4h53.8V11.1z M345.9,22.2c-1.8-1.7-2.9-2.7-3.1-2.9c-1.4-1.4-2.5-2.8-3.4-4.4c0.5,3.9,0.8,8.6,0.8,14.3v38.4h-10.1V2.4  h6.8L385.5,46c2.4,2.1,4.8,4.8,7.4,8.2c-0.7-4.1-1-9.4-1-16.1V2.4H402v65.3h-6L345.9,22.2z M285.5,2.4h10.8v65.3h-10.8V2.4z   M237.4,67.6h-37.9c-5.9,0-9.9-1.1-12-3.2c-2.2-2.2-3.2-6.2-3.2-12.2v-1.8l10.1-2.4v10.5h48.4V38.9h-40.8c-5.8,0-9.8-1.1-11.9-3.2  c-2.1-2.1-3.2-6.2-3.2-12.2v-5.7c0-6.1,1.1-10.2,3.2-12.3c2.2-2.1,6.1-3.2,11.9-3.2h34.7c5.5,0,9.5,1,11.8,3c2.3,2,3.5,5.7,3.5,11.2  v1.4l-9.3,2.7v-9.5h-46v18.3h41c5.9,0,9.9,1.1,12,3.3c2.1,2.2,3.1,6.2,3.1,12.1v7.3c0,6-1,10-3.1,12.2  C247.3,66.5,243.3,67.6,237.4,67.6z M145.7,51.6h-44l-8.3,16.1H82.7l35.5-65.3h11.6L166,67.6h-12L145.7,51.6z M123.8,9.8l-17.5,33.4  h35L123.8,9.8z M51.7,67.6H15.3c-5.9,0-9.9-1.1-12-3.2C1.1,62.2,0,58.2,0,52.2V17.8c0-6,1.1-10.1,3.2-12.2c2.2-2.2,6.2-3.2,12-3.2  h36.4c5.9,0,9.9,1,12,3.1s3.1,6.1,3.1,12.2v6.2l-10.8,2V11.1H10.8v47.4H56V42.2l10.8,2.3v7.7c0,6.1-1,10.2-3.1,12.3  C61.6,66.6,57.6,67.6,51.7,67.6z"></path>  <path d="M552.3,44v-9.2h-27.5V44H552.3z"></path>  <path d="M577.2,67.1l22.1-25.5l24,25.5H644l-35.3-35.5l28.6-30.2h-17.5l-19.9,22.3L578.9,1.3h-20.2l31.6,32l-31.1,33.8H577.2z"></path></svg>