<?xml version="1.0" encoding="utf-8"?>
<!-- Generator: Adobe Illustrator 21.0.1, SVG Export Plug-In . SVG Version: 6.00 Build 0)  -->
<svg version="1.1" id="Слой_1" xmlns="http://www.w3.org/2000/svg" xmlns:xlink="http://www.w3.org/1999/xlink" x="0px" y="0px"
	 width="151.6px" height="71.7px" viewBox="0 0 151.6 71.7" style="enable-background:new 0 0 151.6 71.7;" xml:space="preserve">
<style type="text/css">
	.st0{fill:#FFFFFF;}
</style>
<g id="Слой_x0020_1">
	<path class="st0" d="M109,47.1c5.3,0,10.5,0,15.8,0c1.5-5.6,3.1-11.3,4.6-16.9s3.1-11.3,4.6-16.9c4.6,0,9.2,0,13.9,0
		c1.2-4.4,2.4-8.9,3.7-13.3c-7.3,0-14.5,0-21.8,0c-7.2,0-14.5,0-21.8,0c-1.2,4.4-2.4,8.9-3.7,13.3c4.6,0,9.2,0,13.9,0
		c-1.6,5.6-3.1,11.3-4.7,16.9S110.5,41.5,109,47.1z"/>
	<path class="st0" d="M10.9,43c-2.5-3.4-2.8-7.6-1.1-13.7c5.1,0,10.2,0,15.3,0c-0.9,3.3,0.2,5.5,2.9,5.5c2.6,0,5-2.2,5.9-5.5
		c1.3-4.9,2.7-9.8,4-14.6c1.3-4.9,2.7-9.8,4-14.7C47,0,52.1,0,57.2,0c-1.3,4.8-2.7,9.7-4,14.5c-1.3,4.8-2.7,9.7-4,14.5
		C47.5,35.2,45,39.5,40.5,43C31.6,49.9,16,50,10.9,43L10.9,43z"/>
	<path class="st0" d="M49.6,47.1c6.7,0,13.5,0,20.3,0c6.8,0,13.5,0,20.3,0c1.2-4.3,2.4-8.6,3.5-12.9c-8.4,0-16.7,0-25.1,0
		c0.5-1.7,0.9-3.4,1.4-5.1c7.7,0,15.3,0,23,0c1-3.8,2.1-7.6,3.1-11.4c-7.7,0-15.4,0-23,0c0.4-1.6,0.9-3.2,1.3-4.8
		c8.2,0,16.5,0,24.7,0c1.2-4.3,2.4-8.6,3.6-12.9C96,0,89.3,0,82.6,0c-6.7,0-13.4,0-20.1,0c-2.2,7.9-4.3,15.7-6.5,23.6
		S51.7,39.3,49.6,47.1L49.6,47.1z"/>
	<path class="st0" d="M6.3,71.7c3.1,0,5.3-1.1,7.5-2.9c-0.5-0.6-0.9-1.2-1.4-1.9c-1.8,1.3-3.2,2.1-5.3,2.1c-3.1,0-4.7-2.6-3.8-5.8
		c0,0,0,0,0,0c0.9-3.2,3.9-5.8,7-5.8c1.9,0,3.1,0.8,4,2c0.8-0.7,1.6-1.4,2.4-2.1c-1.2-1.5-2.7-2.5-5.7-2.5c-5,0-9.5,3.8-10.8,8.5
		c0,0,0,0,0,0.1C-1,68,1.6,71.7,6.3,71.7L6.3,71.7z M22.7,71.4c1,0,2,0,2.9,0c0.9-1.3,1.8-2.6,2.8-4c2.6,0,5.2,0,7.7,0
		c0.2,1.3,0.3,2.6,0.6,4c1,0,2,0,3,0C38.9,66,38,60.5,37.2,55c-0.9,0-1.8,0-2.7,0C30.6,60.5,26.7,66,22.7,71.4z M30.2,64.9
		c1.5-2.2,3-4.4,4.6-6.6c0.3,2.2,0.7,4.4,1,6.6C34,64.9,32.1,64.9,30.2,64.9z M56.1,71.7c3.4,0,6.3-1.8,7.2-4.9c0,0,0,0,0,0
		c0.7-2.7-0.7-4-3.9-4.8c-3-0.8-3.6-1.3-3.2-2.6c0,0,0,0,0-0.1c0.3-1.1,1.5-1.9,3.2-1.9c1.5,0,2.8,0.6,4,1.7
		c0.7-0.7,1.4-1.4,2.1-2.2c-1.3-1.3-3-2.1-5.4-2.1c-3.2,0-6.1,1.9-6.9,4.7c0,0,0,0,0,0.1c-0.8,3,0.9,4,4.1,4.9
		c2.8,0.7,3.3,1.3,3,2.5c0,0,0,0,0,0c-0.3,1.2-1.7,2.1-3.5,2.1c-2,0-3.4-0.8-4.6-2.1c-0.8,0.7-1.5,1.4-2.3,2.1
		C51.5,70.8,53.6,71.7,56.1,71.7L56.1,71.7z M73.6,71.4c0.9,0,1.9,0,2.9,0c1.5-5.5,3-10.9,4.5-16.4c-1,0-2,0-2.9,0
		C76.6,60.5,75.1,66,73.6,71.4z M88.9,71.4c0.9,0,1.9,0,2.8,0c1.1-3.9,2.1-7.8,3.2-11.7c2,3.9,3.9,7.8,5.8,11.7c0.8,0,1.6,0,2.4,0
		c1.5-5.5,3-10.9,4.5-16.4c-0.9,0-1.9,0-2.8,0c-1,3.8-2.1,7.6-3.1,11.3c-1.9-3.8-3.8-7.6-5.7-11.3c-0.9,0-1.8,0-2.7,0
		C91.9,60.5,90.4,66,88.9,71.4z M123.2,71.7c5,0,9.7-3.9,10.9-8.5c0,0,0,0,0,0c1.3-4.6-1.2-8.4-6.2-8.4c-5,0-9.6,3.9-10.9,8.5
		c0,0,0,0,0,0.1C115.8,67.9,118.2,71.7,123.2,71.7L123.2,71.7z M124,69.1c-3.3,0-4.9-2.6-4-5.8c0,0,0,0,0,0c0.9-3.2,3.9-5.8,7.1-5.8
		c3.3,0,4.9,2.6,4,5.8c0,0,0,0,0,0.1C130.2,66.5,127.3,69.1,124,69.1L124,69.1z"/>
</g>
</svg>
