<?xml version="1.0" encoding="utf-8"?>
<!-- Generator: Adobe Illustrator 24.2.1, SVG Export Plug-In . SVG Version: 6.00 Build 0)  -->
<svg version="1.1" id="Слой_1" xmlns="http://www.w3.org/2000/svg" xmlns:xlink="http://www.w3.org/1999/xlink" x="0px" y="0px"
	 viewBox="0 0 158 99" style="enable-background:new 0 0 158 99;" xml:space="preserve">
<style type="text/css">
	.st0{fill:url(#SVGID_1_);}
	.st1{fill:#1A1A1A;}
	.st2{fill:url(#SVGID_2_);}
	.st3{fill:url(#SVGID_3_);}
	.st4{fill:url(#SVGID_4_);}
	.st5{fill:#EAC28A;}
</style>
<linearGradient id="SVGID_1_" gradientUnits="userSpaceOnUse" x1="79" y1="206.0749" x2="79" y2="118.5479" gradientTransform="matrix(1 0 0 -1 0 218.5478)">
	<stop  offset="0" style="stop-color:#E6E6E6"/>
	<stop  offset="0.25" style="stop-color:#D6CDC3"/>
	<stop  offset="0.5541" style="stop-color:#ACA498"/>
	<stop  offset="0.75" style="stop-color:#E5C18B"/>
</linearGradient>
<path class="st0" d="M0,0v84c0,8.25,6.75,15,15,15h128c8.25,0,15-6.75,15-15V0C158,0,0,0,0,0z"/>
<path class="st1" d="M3,0v84c0,6.617,5.383,12,12,12h128c6.617,0,12-5.383,12-12V0C155,0,3,0,3,0z"/>
<linearGradient id="SVGID_2_" gradientUnits="userSpaceOnUse" x1="40.466" y1="197.515" x2="40.466" y2="157.7906" gradientTransform="matrix(1 0 0 -1 0 218.5478)">
	<stop  offset="0" style="stop-color:#E6E6E6"/>
	<stop  offset="0.25" style="stop-color:#D6CDC3"/>
	<stop  offset="0.5" style="stop-color:#ACA498"/>
	<stop  offset="0.75" style="stop-color:#E5C18B"/>
	<stop  offset="1" style="stop-color:#F0C788"/>
</linearGradient>
<path class="st2" d="M26.557,21.04c4.582,0,9.164,0.014,13.746-0.007c1.468-0.007,2.905,0.183,4.299,0.605
	c1.668,0.506,3.174,1.337,4.526,2.452c1.391,1.147,2.559,2.48,3.477,4.029c0.748,1.261,1.219,2.627,1.518,4.059
	c0.312,1.495,0.302,3.011,0.15,4.508c-0.217,2.121-0.968,4.081-2.165,5.856c-1.283,1.902-2.888,3.463-4.918,4.556
	c-0.501,0.27-1.027,0.496-1.553,0.716c-0.249,0.105-0.148,0.228-0.061,0.354c0.475,0.688,0.955,1.374,1.435,2.059
	c0.896,1.28,1.795,2.559,2.69,3.84c1.287,1.84,2.572,3.681,3.858,5.522c0.208,0.298,0.418,0.594,0.62,0.896
	c0.038,0.057,0.076,0.153,0.053,0.202c-0.02,0.044-0.125,0.068-0.193,0.068c-2.875-0.003-5.749-0.03-8.624,0.002
	c-0.581,0.007-0.898-0.167-1.222-0.64c-2.147-3.132-4.33-6.239-6.502-9.354c-1.007-1.445-2.017-2.888-3.026-4.331
	c-0.029-0.041-0.069-0.074-0.164-0.174c0,0.244,0,0.412,0,0.579c-0.001,4.208-0.002,8.415-0.003,12.623
	c0,0.341-0.004,0.683-0.003,1.024c0.001,0.192-0.079,0.272-0.281,0.271c-2.434-0.009-4.868-0.011-7.302-0.019
	c-0.119,0-0.237-0.029-0.356-0.045C26.557,47.476,26.557,34.258,26.557,21.04z M34.501,28.974c0,0.151,0,0.258,0,0.365
	c0,3.698,0,7.397,0,11.095c0,0.439-0.003,0.442,0.419,0.442c1.882,0.002,3.764,0.007,5.647-0.003c0.394-0.002,0.8-0.009,1.178-0.104
	c2.059-0.516,3.524-1.749,4.292-3.74c0.584-1.515,0.58-3.07-0.137-4.521c-1.132-2.292-2.986-3.545-5.606-3.536
	c-1.816,0.006-3.632,0.001-5.449,0.001C34.747,28.974,34.648,28.974,34.501,28.974z"/>
<linearGradient id="SVGID_3_" gradientUnits="userSpaceOnUse" x1="115.571" y1="197.5148" x2="115.571" y2="157.7837" gradientTransform="matrix(1 0 0 -1 0 218.5478)">
	<stop  offset="0" style="stop-color:#E6E6E6"/>
	<stop  offset="0.25" style="stop-color:#D6CDC3"/>
	<stop  offset="0.5" style="stop-color:#ACA498"/>
	<stop  offset="0.75" style="stop-color:#E5C18B"/>
	<stop  offset="1" style="stop-color:#F0C788"/>
</linearGradient>
<path class="st3" d="M131.442,60.694c-0.218,0.016-0.436,0.047-0.654,0.047c-2.721,0.004-5.441,0.001-8.162,0.009
	c-0.239,0.001-0.385-0.071-0.505-0.281c-1.477-2.602-2.963-5.199-4.444-7.798c-0.648-1.138-1.288-2.28-1.936-3.418
	c-0.055-0.096-0.139-0.175-0.227-0.283c-0.378,0.653-0.732,1.257-1.078,1.866c-0.984,1.731-1.964,3.464-2.946,5.196
	c-0.618,1.091-1.236,2.183-1.856,3.274c-0.217,0.382-0.44,0.762-0.657,1.144c-0.131,0.23-0.298,0.317-0.588,0.314
	c-2.489-0.032-4.978-0.038-7.468-0.052c-0.382-0.002-0.764,0-1.221,0c0.18-0.328,0.327-0.601,0.479-0.87
	c1.125-1.98,2.253-3.958,3.376-5.939c1.112-1.961,2.214-3.928,3.328-5.888c1.278-2.247,2.562-4.49,3.852-6.73
	c0.155-0.27,0.195-0.488,0.026-0.783c-1.46-2.536-2.904-5.082-4.352-7.626c-1.861-3.27-3.718-6.542-5.581-9.81
	c-0.354-0.621-0.728-1.229-1.091-1.845c-0.02-0.034-0.019-0.081-0.034-0.149c0.085-0.013,0.155-0.034,0.226-0.034
	c2.864,0,5.728,0.006,8.592-0.005c0.254-0.001,0.351,0.127,0.45,0.301c0.852,1.502,1.7,3.007,2.556,4.507
	c0.921,1.615,1.852,3.225,2.774,4.839c0.392,0.685,0.773,1.376,1.188,2.116c0.101-0.109,0.194-0.179,0.248-0.272
	c1.535-2.682,3.068-5.366,4.599-8.051c0.616-1.079,1.232-2.158,1.835-3.245c0.113-0.203,0.269-0.188,0.446-0.188
	c2.941,0.001,5.882,0.001,8.823,0.001c0,0.066,0,0.132,0,0.198c-0.085,0.075-0.196,0.135-0.25,0.228
	c-0.706,1.218-1.406,2.44-2.103,3.662c-1.107,1.938-2.21,3.878-3.316,5.817c-1.024,1.796-2.048,3.591-3.074,5.385
	c-0.819,1.432-1.637,2.864-2.467,4.288c-0.111,0.191-0.107,0.325,0.002,0.51c0.64,1.091,1.272,2.187,1.897,3.286
	c1.426,2.505,2.844,5.014,4.269,7.518c1.426,2.505,2.854,5.008,4.288,7.508c0.233,0.406,0.502,0.792,0.755,1.187
	C131.442,60.65,131.442,60.672,131.442,60.694z"/>
<linearGradient id="SVGID_4_" gradientUnits="userSpaceOnUse" x1="77.8727" y1="197.5484" x2="77.8727" y2="157.8037" gradientTransform="matrix(1 0 0 -1 0 218.5478)">
	<stop  offset="0" style="stop-color:#E6E6E6"/>
	<stop  offset="0.25" style="stop-color:#D6CDC3"/>
	<stop  offset="0.5" style="stop-color:#ACA498"/>
	<stop  offset="0.75" style="stop-color:#E5C18B"/>
	<stop  offset="1" style="stop-color:#F0C788"/>
</linearGradient>
<path class="st4" d="M77.854,60.738c-10.66,0.277-19.879-9.014-19.884-19.805C57.965,30.135,67.055,21.086,77.697,21
	c10.809-0.087,20.007,8.997,20.078,19.794C97.845,51.615,88.672,60.994,77.854,60.738z M62.577,35.976
	c-0.013,0.03-0.027,0.061-0.04,0.091c0.084,0.077,0.161,0.163,0.253,0.23c0.507,0.37,1.018,0.733,1.526,1.101
	c1.809,1.312,3.616,2.625,5.425,3.938c0.722,0.524,1.445,1.045,2.166,1.569c0.145,0.106,0.272,0.214,0.191,0.437
	c-0.148,0.413-0.271,0.835-0.409,1.252c-0.426,1.294-0.856,2.588-1.28,3.883c-0.63,1.921-1.256,3.844-1.882,5.766
	c-0.021,0.063-0.018,0.133-0.034,0.257c0.137-0.073,0.228-0.109,0.305-0.164c0.403-0.288,0.804-0.579,1.204-0.871
	c1.743-1.271,3.486-2.541,5.229-3.813c0.934-0.681,1.863-1.368,2.807-2.034c0.085-0.06,0.3-0.03,0.397,0.039
	c1.102,0.786,2.193,1.588,3.287,2.385c1.992,1.452,3.983,2.905,5.977,4.355c0.053,0.038,0.128,0.046,0.21,0.074
	c0-0.068,0.008-0.102-0.001-0.131c-0.463-1.421-0.93-2.841-1.392-4.263c-0.366-1.129-0.723-2.261-1.089-3.39
	c-0.349-1.076-0.689-2.156-1.067-3.222c-0.098-0.276-0.062-0.413,0.166-0.573c0.936-0.659,1.865-1.329,2.792-2.001
	c2.112-1.532,4.222-3.066,6.329-4.604c0.082-0.06,0.132-0.164,0.248-0.314c-0.293,0.017-0.488,0.039-0.683,0.039
	c-3.448,0.003-6.895,0.003-10.343,0.004c-0.22,0-0.446,0.025-0.659-0.015c-0.124-0.023-0.291-0.127-0.331-0.235
	c-0.217-0.587-0.401-1.185-0.594-1.781c-0.301-0.93-0.596-1.862-0.9-2.792c-0.359-1.096-0.73-2.189-1.085-3.286
	c-0.341-1.056-0.668-2.118-1.004-3.176c-0.011-0.036-0.051-0.063-0.11-0.134c-0.174,0.521-0.338,1.004-0.496,1.488
	c-0.3,0.919-0.596,1.839-0.894,2.758c-0.353,1.087-0.707,2.173-1.06,3.26c-0.376,1.161-0.758,2.32-1.121,3.485
	c-0.101,0.324-0.272,0.432-0.617,0.431c-3.591-0.012-7.182-0.005-10.773-0.006C63.009,36.013,62.793,35.989,62.577,35.976z"/>
<g>
	<path class="st5" d="M85.807,69.822c0,0.481,0,0.961,0,1.442c0.001,0.76-0.004,1.52,0.007,2.279
		c0.004,0.274-0.081,0.408-0.379,0.393c-0.811-0.039-0.782,0.178-0.777-0.767c0.01-1.883-0.001-3.766-0.002-5.649
		c0-0.44,0.009-0.389,0.435-0.454c0.528-0.081,0.717,0.222,0.914,0.606c0.603,1.173,1.222,2.337,1.837,3.504
		c0.018,0.033,0.061,0.053,0.149,0.126c0.013-0.154,0.029-0.253,0.029-0.353c-0.002-1.178-0.003-2.356-0.012-3.534
		c-0.002-0.244,0.061-0.351,0.339-0.343c0.814,0.026,0.811-0.173,0.812,0.828c0.003,1.861,0.001,3.722,0,5.583
		c0,0.432-0.013,0.406-0.445,0.454c-0.443,0.049-0.674-0.122-0.869-0.511c-0.587-1.169-1.213-2.319-1.827-3.475
		c-0.033-0.061-0.093-0.108-0.14-0.161C85.853,69.8,85.83,69.811,85.807,69.822z"/>
	<path class="st5" d="M92.177,70.542c0-0.615-0.038-1.233,0.008-1.845c0.095-1.257,1.594-1.9,2.601-1.581
		c1.134,0.359,1.528,1.281,1.515,2.172c-0.013,0.902,0.011,1.804-0.011,2.705c-0.023,0.943-0.581,1.68-1.482,1.915
		c-1.352,0.353-2.592-0.43-2.641-1.785c-0.019-0.527-0.003-1.055-0.003-1.582C92.168,70.542,92.172,70.542,92.177,70.542z
		 M95.151,70.593c0,0-0.001,0-0.002,0c0-0.506,0.017-1.012-0.004-1.517c-0.03-0.744-0.728-1.165-1.387-0.842
		c-0.411,0.201-0.561,0.583-0.568,1.007c-0.015,0.835-0.005,1.671,0.008,2.506c0.003,0.171,0.063,0.343,0.106,0.512
		c0.156,0.609,0.674,0.702,1.033,0.648c0.507-0.076,0.815-0.471,0.814-0.995C95.15,71.472,95.151,71.033,95.151,70.593z"/>
	<path class="st5" d="M70.242,73.93c-0.133,0-0.232-0.003-0.331,0.001c-0.192,0.008-0.303-0.061-0.342-0.269
		c-0.057-0.301-0.154-0.595-0.22-0.895c-0.057-0.259-0.197-0.362-0.468-0.347c-0.395,0.021-0.793,0.026-1.188,0.001
		c-0.239-0.015-0.345,0.082-0.403,0.289c-0.095,0.339-0.179,0.682-0.303,1.01c-0.036,0.096-0.187,0.189-0.299,0.207
		c-0.203,0.034-0.417,0.005-0.625,0.016c-0.221,0.011-0.277-0.09-0.218-0.285c0.371-1.23,0.747-2.458,1.111-3.691
		c0.239-0.811,0.455-1.629,0.689-2.441c0.061-0.212,0.08-0.459,0.418-0.455c0.752,0.01,0.772,0.013,0.898,0.444
		c0.386,1.318,0.778,2.635,1.165,3.953c0.21,0.716,0.413,1.435,0.622,2.151c0.065,0.223,0.01,0.345-0.243,0.328
		C70.406,73.94,70.307,73.934,70.242,73.93z M68.277,68.724c-0.05,0.079-0.091,0.118-0.101,0.164
		c-0.173,0.757-0.338,1.515-0.513,2.271c-0.045,0.195,0.032,0.266,0.214,0.267c0.296,0.003,0.593,0.021,0.888,0
		c0.066-0.005,0.187-0.157,0.173-0.217c-0.167-0.759-0.352-1.515-0.538-2.27C68.385,68.875,68.332,68.819,68.277,68.724z"/>
	<path class="st5" d="M75.332,73.976c-0.866,0.032-1.529-0.29-2.059-0.922c-0.141-0.168-0.138-0.286,0.041-0.404
		c0.009-0.006,0.019-0.012,0.027-0.018c0.196-0.142,0.387-0.385,0.589-0.394c0.17-0.008,0.35,0.259,0.528,0.401
		c0.495,0.394,1.455,0.385,1.733-0.149c0.26-0.498,0.097-1.073-0.432-1.289c-0.477-0.195-0.972-0.351-1.438-0.569
		c-0.618-0.29-1.001-0.749-1.014-1.487c-0.013-0.763,0.193-1.393,0.88-1.79c0.995-0.575,2.199-0.364,2.958,0.367
		c0.181,0.175,0.206,0.326-0.027,0.475c-0.073,0.047-0.142,0.107-0.199,0.173c-0.244,0.287-0.46,0.31-0.76,0.034
		c-0.311-0.286-0.712-0.383-1.141-0.251c-0.325,0.1-0.516,0.311-0.585,0.647c-0.065,0.318,0.07,0.565,0.319,0.701
		c0.372,0.204,0.778,0.346,1.17,0.515c0.231,0.099,0.478,0.173,0.693,0.301c0.824,0.487,1.019,1.505,0.821,2.187
		c-0.267,0.918-0.932,1.437-1.878,1.472C75.471,73.979,75.383,73.976,75.332,73.976z"/>
	<path class="st5" d="M60.55,70.525c0.024,0.549,0.035,1.099,0.077,1.646c0.03,0.39,0.29,0.602,0.654,0.687
		c0.357,0.084,0.724,0.039,0.916-0.278c0.253-0.418,0.499-0.448,0.916-0.24c0.378,0.189,0.436,0.225,0.239,0.606
		c-0.411,0.795-1.363,1.207-2.312,1.001c-0.935-0.203-1.565-0.923-1.582-1.857c-0.019-1.023-0.013-2.047-0.006-3.071
		c0.009-1.444,1.373-2.206,2.56-1.935c0.654,0.15,1.11,0.556,1.409,1.148c0.102,0.202,0.103,0.356-0.171,0.405
		c-0.084,0.015-0.162,0.066-0.243,0.102c-0.276,0.122-0.477,0.174-0.698-0.171c-0.37-0.577-1.086-0.61-1.508-0.096
		c-0.145,0.176-0.2,0.459-0.218,0.698c-0.033,0.449-0.01,0.902-0.01,1.353C60.565,70.525,60.557,70.525,60.55,70.525z"/>
	<path class="st5" d="M81.48,70.542c0,1.013-0.006,2.026,0.004,3.039c0.003,0.289-0.095,0.383-0.391,0.362
		c-0.743-0.053-0.742-0.04-0.742-0.78c-0.001-1.894-0.004-3.788-0.006-5.682c0-0.372,0.041-0.412,0.421-0.405
		c0.706,0.014,0.711,0.014,0.715,0.725c0.005,0.914,0.001,1.827,0.001,2.741H81.48z"/>
</g>
</svg>
