<?xml version="1.0" encoding="UTF-8"?>
<!DOCTYPE svg PUBLIC "-//W3C//DTD SVG 1.1//EN" "http://www.w3.org/Graphics/SVG/1.1/DTD/svg11.dtd">
<!-- Creator: CorelDRAW 2018 (64-Bit) -->
<svg xmlns="http://www.w3.org/2000/svg" xml:space="preserve" width="62.1185mm" height="17.4052mm" version="1.1" style="shape-rendering:geometricPrecision; text-rendering:geometricPrecision; image-rendering:optimizeQuality; fill-rule:evenodd; clip-rule:evenodd"
viewBox="0 0 186.9 52.37"
 xmlns:xlink="http://www.w3.org/1999/xlink">
 <defs>
  <style type="text/css">
   <![CDATA[
    .fil1 {fill:#FF9D00;fill-rule:nonzero}
    .fil0 {fill:white;fill-rule:nonzero}
   ]]>
  </style>
 </defs>
 <g id="Слой_x0020_1">
  <metadata id="CorelCorpID_0Corel-Layer"/>
  <g id="_2535826376528">
   <g>
    <path class="fil0" d="M117.07 15.95l0 -3.54c0,-3.23 1.83,-5.74 5.83,-5.74 2.54,0 4.19,1.18 4.19,1.89 0,0.37 -0.31,0.74 -0.71,0.74 -0.53,0 -1.09,-1.21 -3.45,-1.21 -2.82,0 -4.34,1.65 -4.34,4.31l0 3.54c0,2.67 1.49,4.31 4.38,4.31 2.51,0 3.04,-1.24 3.63,-1.24 0.37,0 0.68,0.4 0.68,0.74 0,0.74 -1.68,1.92 -4.38,1.92 -3.97,0 -5.83,-2.45 -5.83,-5.74z"/>
    <path class="fil0" d="M138.08 14.68l-1.52 0c-3.04,0 -5.87,0.28 -5.87,2.86 0,1.92 1.3,2.79 2.98,2.79 2.17,0 4.41,-1.99 4.41,-3.35l0 -2.3zm1.52 -2.05l0 8.19c0,0.37 -0.31,0.68 -0.75,0.68 -0.4,0 -0.74,-0.31 -0.74,-0.68l0 -1.49c-1.06,1.21 -2.61,2.36 -4.66,2.36 -2.39,0 -4.28,-1.3 -4.28,-4.1 0,-3.32 2.92,-4.16 7.23,-4.16l1.68 0 0 -0.81c0,-2.17 -1.09,-4.56 -3.91,-4.56 -1.99,0 -2.82,0.87 -3.26,0.87 -0.43,0 -0.68,-0.53 -0.68,-0.84 0,-0.68 2.08,-1.43 4,-1.43 3.97,0 5.37,2.89 5.37,5.96z"/>
    <path class="fil0" d="M150.71 17.94c0,-4.5 -7.73,-2.02 -7.73,-7.17 0,-1.89 1.37,-4.1 4.72,-4.1 1.92,0 3.97,0.71 3.97,1.4 0,0.28 -0.31,0.81 -0.68,0.81 -0.43,0 -1.4,-0.84 -3.26,-0.84 -2.45,0 -3.32,1.55 -3.32,2.7 0,3.85 7.76,1.43 7.76,7.11 0,2.39 -1.77,3.85 -4.84,3.85 -2.86,0 -4.69,-1.27 -4.69,-2.11 0,-0.31 0.28,-0.71 0.56,-0.71 0.62,0 1.24,1.46 4.1,1.46 2.48,0 3.41,-1.12 3.41,-2.39z"/>
    <path class="fil0" d="M156.86 7.48l0 13.35c0,0.34 -0.34,0.68 -0.78,0.68 -0.43,0 -0.74,-0.34 -0.74,-0.68l0 -13.35c0,-0.37 0.31,-0.62 0.74,-0.62 0.44,0 0.78,0.25 0.78,0.62zm0.37 -6.39c0,0.62 -0.53,1.15 -1.15,1.15 -0.68,0 -1.18,-0.53 -1.18,-1.15 0,-0.59 0.5,-1.09 1.18,-1.09 0.62,0 1.15,0.5 1.15,1.09z"/>
    <path class="fil0" d="M162.47 20.83c0,0.34 -0.34,0.68 -0.78,0.68 -0.44,0 -0.75,-0.34 -0.75,-0.68l0 -13.35c0,-0.37 0.31,-0.62 0.75,-0.62 0.4,0 0.74,0.25 0.74,0.62l0 1.55c0.65,-1.21 2.08,-2.36 4.16,-2.36 3.01,0 5.56,2.55 5.56,5.68l0 8.47c0,0.47 -0.4,0.68 -0.78,0.68 -0.37,0 -0.74,-0.22 -0.74,-0.68l0 -8.47c0,-2.14 -1.89,-4.25 -4.16,-4.25 -1.99,0 -4,1.58 -4,4.25l0 8.47z"/>
    <path class="fil0" d="M185.38 12.35c0,-2.14 -1.86,-4.25 -4.19,-4.25 -2.33,0 -4.16,2.11 -4.16,4.25l0 3.6c0,2.2 1.83,4.31 4.16,4.31 2.3,0 4.19,-2.11 4.19,-4.31l0 -3.6zm1.52 0l0 3.6c0,3.01 -2.67,5.74 -5.71,5.74 -3.04,0 -5.68,-2.7 -5.68,-5.74l0 -3.6c0,-3.04 2.58,-5.68 5.68,-5.68 3.04,0 5.71,2.55 5.71,5.68z"/>
   </g>
   <g>
    <path class="fil0" d="M8.94 15.03c0,-2.89 2.47,-4.63 6.8,-4.63 2.89,0 4.58,0.75 5.85,1.39 0.21,0.13 0.42,0.25 0.66,0.33 0.4,0.15 0.83,0.24 1.28,0.24 1.97,0 3.57,-1.6 3.57,-3.57 0,-1.16 -0.55,-2.19 -1.41,-2.84 -0.11,-0.08 -0.22,-0.16 -0.34,-0.23 -2.55,-1.59 -7.13,-2 -9.6,-2 -6.92,0 -14.62,3.07 -14.62,12.03 0,14.26 19.31,11.49 19.31,20.51 0,3.61 -3.13,5.23 -6.74,5.23 -3.77,0 -5.84,-1.75 -7.45,-3.1 -0.18,-0.18 -0.37,-0.34 -0.58,-0.48 -0.58,-0.39 -1.27,-0.61 -2.02,-0.61 -1.1,0 -2.09,0.49 -2.76,1.26 -0.55,0.64 -0.89,1.47 -0.89,2.38 0,0.62 0.15,1.2 0.42,1.71 1.45,3.01 6.8,5.88 13.51,5.88 8.3,0 14.32,-4.45 14.32,-13.05 0,-15.58 -19.31,-12.99 -19.31,-20.45z"/>
    <path class="fil0" d="M111.94 44.56l0 0c0,-1.89 -1.54,-3.43 -3.43,-3.43l-0 0 -13.59 0 0 -33.21c0,-2.16 -1.75,-3.91 -3.91,-3.91l-0 0 0 0c-2.16,0 -3.91,1.75 -3.91,3.91l0 36.15c0,1.41 0.74,2.64 1.86,3.33 0.48,0.36 1.03,0.58 1.57,0.58l17.99 0c1.89,0 3.43,-1.53 3.43,-3.43l0 -0z"/>
    <path class="fil1" d="M56.52 11.9c-7.88,0 -14.28,6.41 -14.28,14.28 0,7.88 6.41,14.28 14.28,14.28 7.88,0 14.28,-6.41 14.28,-14.28 0,-7.88 -6.41,-14.28 -14.28,-14.28zm0 29.09c-8.16,0 -14.8,-6.64 -14.8,-14.8 0,-8.16 6.64,-14.8 14.8,-14.8 8.16,0 14.8,6.64 14.8,14.8 0,8.16 -6.64,14.8 -14.8,14.8z"/>
    <path class="fil1" d="M58.82 5.54c-0.03,0 -0.06,-0 -0.08,-0 -0.73,-0.08 -1.48,-0.12 -2.21,-0.12 -0.73,0 -1.48,0.04 -2.21,0.12 -0.03,0 -0.06,0 -0.08,0 -0.26,0 -0.51,-0.13 -0.65,-0.36 -0.16,-0.25 -0.17,-0.56 -0.02,-0.82l2.29 -3.97c0.14,-0.24 0.4,-0.39 0.68,-0.39 0.28,0 0.54,0.15 0.68,0.39l2.29 3.97c0.15,0.25 0.14,0.57 -0.02,0.82 -0.15,0.22 -0.39,0.36 -0.65,0.36z"/>
    <path class="fil1" d="M56.52 52.37c-0.28,0 -0.54,-0.15 -0.68,-0.39l-2.29 -3.97c-0.15,-0.25 -0.14,-0.57 0.02,-0.82 0.14,-0.22 0.39,-0.36 0.65,-0.36 0.03,0 0.05,0 0.08,0 0.73,0.08 1.48,0.12 2.21,0.12 0.73,0 1.48,-0.04 2.21,-0.12 0.03,-0 0.06,-0 0.08,-0 0.26,0 0.51,0.13 0.65,0.36 0.16,0.25 0.17,0.56 0.02,0.82l-2.29 3.97c-0.14,0.24 -0.4,0.39 -0.68,0.39z"/>
    <path class="fil1" d="M77.95 29.26c-0.15,0 -0.3,-0.04 -0.43,-0.13 -0.25,-0.16 -0.38,-0.44 -0.35,-0.74 0.08,-0.73 0.12,-1.48 0.12,-2.21 0,-0.73 -0.04,-1.48 -0.12,-2.21 -0.03,-0.29 0.1,-0.58 0.35,-0.74 0.13,-0.08 0.28,-0.13 0.43,-0.13 0.13,0 0.27,0.04 0.39,0.11l3.97 2.29c0.24,0.14 0.39,0.4 0.39,0.68 0,0.28 -0.15,0.54 -0.39,0.68l-3.97 2.29c-0.12,0.07 -0.26,0.1 -0.39,0.1z"/>
    <path class="fil1" d="M35.09 29.26c-0.13,0 -0.27,-0.03 -0.39,-0.1l-3.97 -2.29c-0.24,-0.14 -0.39,-0.4 -0.39,-0.68 0,-0.28 0.15,-0.54 0.39,-0.68l3.97 -2.29c0.12,-0.07 0.26,-0.11 0.39,-0.11 0.15,0 0.3,0.04 0.43,0.13 0.25,0.16 0.38,0.44 0.35,0.74 -0.08,0.73 -0.12,1.48 -0.12,2.21 0,0.73 0.04,1.48 0.12,2.21 0.03,0.29 -0.1,0.58 -0.35,0.74 -0.13,0.08 -0.28,0.13 -0.43,0.13z"/>
    <path class="fil1" d="M73.3 13.43c-0.23,0 -0.46,-0.1 -0.61,-0.29 -0.93,-1.15 -1.98,-2.2 -3.13,-3.13 -0.23,-0.18 -0.33,-0.48 -0.27,-0.77 0.06,-0.29 0.28,-0.52 0.56,-0.59l4.43 -1.19c0.07,-0.02 0.14,-0.03 0.2,-0.03 0.2,0 0.4,0.08 0.55,0.23 0.2,0.2 0.27,0.49 0.2,0.75l-1.19 4.43c-0.08,0.28 -0.3,0.5 -0.59,0.56 -0.05,0.01 -0.11,0.02 -0.16,0.02z"/>
    <path class="fil1" d="M38.56 44.93c-0.2,0 -0.4,-0.08 -0.55,-0.23 -0.2,-0.2 -0.27,-0.48 -0.2,-0.75l1.19 -4.43c0.08,-0.28 0.31,-0.5 0.59,-0.56 0.05,-0.01 0.11,-0.02 0.16,-0.02 0.23,0 0.46,0.1 0.61,0.29 0.93,1.15 1.98,2.2 3.13,3.13 0.23,0.18 0.33,0.48 0.27,0.77 -0.06,0.29 -0.28,0.52 -0.56,0.59l-4.43 1.19c-0.07,0.02 -0.13,0.03 -0.2,0.03z"/>
    <path class="fil1" d="M74.49 44.93c-0.07,0 -0.14,-0.01 -0.2,-0.03l-4.43 -1.19c-0.28,-0.08 -0.5,-0.31 -0.56,-0.59 -0.06,-0.29 0.04,-0.58 0.27,-0.77 1.15,-0.93 2.2,-1.98 3.13,-3.13 0.15,-0.19 0.37,-0.29 0.61,-0.29 0.05,0 0.11,0.01 0.16,0.02 0.29,0.06 0.52,0.28 0.59,0.56l1.19 4.43c0.07,0.27 -0,0.56 -0.2,0.75 -0.15,0.15 -0.35,0.23 -0.55,0.23z"/>
    <path class="fil1" d="M39.75 13.43c-0.05,0 -0.11,-0.01 -0.16,-0.02 -0.29,-0.06 -0.52,-0.28 -0.59,-0.56l-1.19 -4.43c-0.07,-0.27 0.01,-0.56 0.2,-0.75 0.15,-0.15 0.35,-0.23 0.55,-0.23 0.07,0 0.14,0.01 0.2,0.03l4.43 1.19c0.28,0.08 0.5,0.31 0.56,0.59 0.06,0.29 -0.04,0.59 -0.27,0.77 -1.15,0.93 -2.2,1.98 -3.13,3.13 -0.15,0.19 -0.37,0.29 -0.61,0.29z"/>
    <path class="fil1" d="M46.2 8.04c-0.15,0 -0.31,-0.05 -0.44,-0.14 -0.24,-0.17 -0.37,-0.45 -0.33,-0.75l0.6 -4.55c0.04,-0.28 0.22,-0.51 0.48,-0.62 0.1,-0.04 0.2,-0.06 0.3,-0.06 0.17,0 0.34,0.06 0.48,0.16l3.64 2.79c0.23,0.18 0.35,0.47 0.29,0.76 -0.05,0.29 -0.27,0.52 -0.55,0.61 -1.41,0.41 -2.79,0.98 -4.08,1.69 -0.12,0.06 -0.25,0.1 -0.37,0.1z"/>
    <path class="fil1" d="M66.25 50.43c-0.17,0 -0.34,-0.06 -0.48,-0.16l-3.64 -2.79c-0.23,-0.18 -0.35,-0.47 -0.29,-0.76 0.05,-0.29 0.27,-0.52 0.55,-0.61 1.41,-0.41 2.78,-0.98 4.08,-1.69 0.12,-0.06 0.25,-0.1 0.37,-0.1 0.15,0 0.31,0.05 0.44,0.14 0.24,0.17 0.37,0.45 0.33,0.75l-0.6 4.55c-0.04,0.28 -0.22,0.51 -0.48,0.62 -0.1,0.04 -0.2,0.06 -0.3,0.06z"/>
    <path class="fil1" d="M77.2 20.88c-0.05,0 -0.1,-0 -0.14,-0.01 -0.29,-0.05 -0.52,-0.27 -0.61,-0.55 -0.41,-1.41 -0.98,-2.79 -1.69,-4.08 -0.14,-0.26 -0.13,-0.57 0.04,-0.82 0.15,-0.21 0.39,-0.34 0.64,-0.34 0.03,0 0.07,0 0.1,0.01l4.54 0.6c0.28,0.04 0.51,0.22 0.62,0.48 0.11,0.26 0.07,0.55 -0.1,0.77l-2.79 3.64c-0.15,0.19 -0.38,0.31 -0.62,0.31z"/>
    <path class="fil1" d="M37.6 37.28c-0.03,0 -0.07,-0 -0.1,-0.01l-4.55 -0.6c-0.28,-0.04 -0.51,-0.22 -0.62,-0.48 -0.11,-0.26 -0.07,-0.55 0.1,-0.77l2.79 -3.64c0.15,-0.19 0.38,-0.31 0.62,-0.31 0.05,0 0.1,0 0.14,0.01 0.29,0.05 0.52,0.27 0.61,0.55 0.41,1.41 0.98,2.79 1.69,4.08 0.14,0.26 0.13,0.57 -0.04,0.82 -0.15,0.21 -0.39,0.34 -0.64,0.34z"/>
    <path class="fil1" d="M66.84 8.04c-0.13,0 -0.26,-0.03 -0.37,-0.1 -1.29,-0.71 -2.67,-1.28 -4.08,-1.69 -0.28,-0.08 -0.49,-0.32 -0.55,-0.61 -0.05,-0.29 0.06,-0.58 0.29,-0.76l3.64 -2.79c0.14,-0.11 0.31,-0.16 0.48,-0.16 0.1,0 0.2,0.02 0.3,0.06 0.26,0.11 0.44,0.34 0.48,0.62l0.6 4.55c0.04,0.29 -0.09,0.58 -0.33,0.75 -0.13,0.09 -0.29,0.14 -0.44,0.14z"/>
    <path class="fil1" d="M46.8 50.43c-0.1,0 -0.2,-0.02 -0.3,-0.06 -0.26,-0.11 -0.44,-0.34 -0.48,-0.62l-0.6 -4.55c-0.04,-0.29 0.09,-0.58 0.33,-0.75 0.13,-0.09 0.29,-0.14 0.44,-0.14 0.13,0 0.26,0.03 0.37,0.1 1.29,0.71 2.67,1.28 4.08,1.69 0.28,0.08 0.49,0.32 0.55,0.61 0.05,0.29 -0.06,0.58 -0.29,0.76l-3.64 2.79c-0.14,0.11 -0.31,0.16 -0.48,0.16z"/>
    <path class="fil1" d="M75.45 37.28c-0.26,0 -0.5,-0.13 -0.64,-0.34 -0.17,-0.24 -0.18,-0.56 -0.04,-0.82 0.71,-1.29 1.28,-2.67 1.69,-4.08 0.08,-0.28 0.32,-0.49 0.61,-0.55 0.05,-0.01 0.1,-0.01 0.14,-0.01 0.24,0 0.47,0.11 0.62,0.31l2.79 3.64c0.17,0.22 0.21,0.52 0.1,0.77 -0.11,0.26 -0.34,0.44 -0.62,0.48l-4.55 0.6c-0.03,0 -0.07,0.01 -0.1,0.01z"/>
    <path class="fil1" d="M35.85 20.88c-0.24,0 -0.47,-0.11 -0.62,-0.31l-2.79 -3.64c-0.17,-0.22 -0.21,-0.52 -0.1,-0.77 0.11,-0.26 0.34,-0.44 0.62,-0.48l4.55 -0.6c0.03,-0 0.07,-0.01 0.1,-0.01 0.26,0 0.5,0.13 0.64,0.34 0.17,0.24 0.18,0.56 0.04,0.82 -0.71,1.29 -1.28,2.67 -1.69,4.08 -0.08,0.28 -0.32,0.49 -0.61,0.55 -0.05,0.01 -0.1,0.01 -0.14,0.01z"/>
   </g>
  </g>
 </g>
</svg>
