<svg width="82" height="32" viewBox="0 0 82 32" fill="none" xmlns="http://www.w3.org/2000/svg">
<path d="M31.5745 17.6359C29.9949 19.232 27.9793 20.03 25.5277 20.03C23.076 20.03 21.0604 19.232 19.4809 17.6359C18.4743 16.6085 17.7885 15.4073 17.4234 14.0325C17.7946 14.0228 18.1733 14.022 18.5595 14.0307C19.2249 14.0456 19.8803 14.0693 20.5257 14.1011C20.7698 14.7233 21.1126 15.2845 21.5541 15.7849C22.5577 16.9037 23.8823 17.4632 25.5277 17.4632C27.1566 17.4632 28.4729 16.9037 29.4766 15.7849C29.6479 15.5911 29.8046 15.389 29.9467 15.1784C30.9788 15.3633 31.9788 15.5639 32.9481 15.7757C32.588 16.4487 32.1301 17.0688 31.5745 17.6359Z" fill="white"/>
<path d="M36.7242 16.6868V19.7338H46.868V19.6484C45.7537 19.3343 44.5698 18.9741 43.3106 18.591C41.3127 17.9831 39.1251 17.3175 36.7242 16.6868Z" fill="white"/>
<path d="M78.1449 18.205L78.7168 19.7338H81.9994L80.8045 16.6921C79.9676 17.1718 79.0817 17.6759 78.1449 18.205Z" fill="white"/>
<path d="M5.82764 18.1085L6.46608 19.7338H10.0695L11.9828 14.8629C8.95088 15.7455 6.84987 17.139 5.82764 18.1085Z" fill="white"/>
<path d="M17.1118 11.5149C17.1118 11.6696 17.1149 11.8226 17.1211 11.9739C17.4922 11.9684 17.8734 11.9656 18.2649 11.9656C18.8865 11.9656 19.4933 11.9735 20.0863 11.9889C20.0778 11.8335 20.0735 11.6755 20.0735 11.5149C20.0735 9.78727 20.5672 8.364 21.5544 7.24513C22.5581 6.12626 23.8826 5.56682 25.528 5.56682C27.157 5.56682 28.4733 6.12626 29.477 7.24513C30.4807 8.364 30.9825 9.78727 30.9825 11.5149C30.9825 12.1413 30.9153 12.7291 30.7808 13.2783C31.7551 13.499 32.7039 13.7436 33.6385 14.009C33.8423 13.2328 33.9443 12.4015 33.9443 11.5149C33.9443 9.04684 33.1545 7.01477 31.5749 5.41873C29.9953 3.80624 27.9797 3 25.528 3C23.0764 3 21.0608 3.80624 19.4812 5.41873C17.9016 7.01477 17.1118 9.04684 17.1118 11.5149Z" fill="url(#paint0_linear_915_37827)"/>
<path d="M17.1118 11.5149C17.1118 11.6696 17.1149 11.8226 17.1211 11.9739C17.4922 11.9684 17.8734 11.9656 18.2649 11.9656C18.8865 11.9656 19.4933 11.9735 20.0863 11.9889C20.0778 11.8335 20.0735 11.6755 20.0735 11.5149C20.0735 9.78727 20.5672 8.364 21.5544 7.24513C22.5581 6.12626 23.8826 5.56682 25.528 5.56682C27.157 5.56682 28.4733 6.12626 29.477 7.24513C30.4807 8.364 30.9825 9.78727 30.9825 11.5149C30.9825 12.1413 30.9153 12.7291 30.7808 13.2783C31.7551 13.499 32.7039 13.7436 33.6385 14.009C33.8423 13.2328 33.9443 12.4015 33.9443 11.5149C33.9443 9.04684 33.1545 7.01477 31.5749 5.41873C29.9953 3.80624 27.9797 3 25.528 3C23.0764 3 21.0608 3.80624 19.4812 5.41873C17.9016 7.01477 17.1118 9.04684 17.1118 11.5149Z" fill="url(#paint1_linear_915_37827)"/>
<path d="M16.5363 3.27149L13.0421 12.1668C11.8159 12.2715 10.7345 12.4131 9.77069 12.5825L13.2537 3.27149H16.5363Z" fill="url(#paint2_linear_915_37827)"/>
<path d="M16.5363 3.27149L13.0421 12.1668C11.8159 12.2715 10.7345 12.4131 9.77069 12.5825L13.2537 3.27149H16.5363Z" fill="url(#paint3_linear_915_37827)"/>
<path d="M7.00508 13.2228L3.28257 3.27149H0L4.30694 14.2361C5.08132 13.8801 5.95471 13.5335 7.00508 13.2228Z" fill="url(#paint4_linear_915_37827)"/>
<path d="M7.00508 13.2228L3.28257 3.27149H0L4.30694 14.2361C5.08132 13.8801 5.95471 13.5335 7.00508 13.2228Z" fill="url(#paint5_linear_915_37827)"/>
<path d="M75.5333 3.27149L80.5138 15.9509C79.8159 16.322 78.7326 16.8849 77.8164 17.3257L73.7316 6.40597L68.7461 19.7337H65.4635L71.9299 3.27149H75.5333Z" fill="url(#paint6_linear_915_37827)"/>
<path d="M75.5333 3.27149L80.5138 15.9509C79.8159 16.322 78.7326 16.8849 77.8164 17.3257L73.7316 6.40597L68.7461 19.7337H65.4635L71.9299 3.27149H75.5333Z" fill="url(#paint7_linear_915_37827)"/>
<path d="M49.7032 19.7337H52.3624V7.98556L60.9514 19.7337H63.7404V3.27149H60.8527V14.6988L52.4365 3.27149H49.4748V19.6633C49.551 19.687 49.6271 19.7105 49.7032 19.7337Z" fill="url(#paint8_linear_915_37827)"/>
<path d="M49.7032 19.7337H52.3624V7.98556L60.9514 19.7337H63.7404V3.27149H60.8527V14.6988L52.4365 3.27149H49.4748V19.6633C49.551 19.687 49.6271 19.7105 49.7032 19.7337Z" fill="url(#paint9_linear_915_37827)"/>
<path d="M39.6122 15.9901V3.27149H36.7245V14.969C37.6848 15.2915 38.6431 15.6331 39.6122 15.9901Z" fill="url(#paint10_linear_915_37827)"/>
<path d="M39.6122 15.9901V3.27149H36.7245V14.969C37.6848 15.2915 38.6431 15.6331 39.6122 15.9901Z" fill="url(#paint11_linear_915_37827)"/>
<path d="M25.7454 29.6802C24.9194 29.6802 24.2311 29.4159 23.6805 28.8872C23.1298 28.3531 22.8545 27.6675 22.8545 26.8306C22.8545 25.9936 23.1298 25.3108 23.6805 24.7822C24.2311 24.248 24.9194 23.981 25.7454 23.981C26.7035 23.981 27.4414 24.3939 27.959 25.2199L27.1331 25.6412C26.9954 25.4044 26.7999 25.2117 26.5466 25.063C26.2988 24.9143 26.0317 24.84 25.7454 24.84C25.2003 24.84 24.746 25.0272 24.3825 25.4016C24.0246 25.7761 23.8457 26.2524 23.8457 26.8306C23.8457 27.4087 24.0246 27.8851 24.3825 28.2595C24.746 28.6339 25.2003 28.8212 25.7454 28.8212C26.0373 28.8212 26.3071 28.7468 26.5549 28.5981C26.8027 28.4495 26.9954 28.2567 27.1331 28.02L27.959 28.4412C27.4304 29.2672 26.6925 29.6802 25.7454 29.6802Z" fill="white"/>
<path d="M34.8457 29.5811H33.7471L33.3424 28.5238H30.8149L30.4102 29.5811H29.3116L31.4757 24.0718H32.6816L34.8457 29.5811ZM33.0698 27.6731L32.0787 25.0465L31.0875 27.6731H33.0698Z" fill="white"/>
<path d="M38.4476 29.6802C37.5005 29.6802 36.7544 29.3883 36.2092 28.8046L36.7461 28.0613C37.2197 28.5679 37.8006 28.8212 38.4889 28.8212C38.8579 28.8212 39.1332 28.7468 39.3149 28.5981C39.5021 28.4495 39.5958 28.2733 39.5958 28.0695C39.5958 27.8603 39.4856 27.6951 39.2654 27.5739C39.0451 27.4473 38.778 27.3482 38.4642 27.2766C38.1503 27.205 37.8337 27.1197 37.5143 27.0205C37.2004 26.9214 36.9334 26.7535 36.7131 26.5167C36.4928 26.2799 36.3827 25.9743 36.3827 25.5999C36.3827 25.1373 36.5672 24.7546 36.9361 24.4518C37.3105 24.1434 37.7951 23.9892 38.3898 23.9892C39.2378 23.9892 39.9261 24.2453 40.4548 24.7574L39.9014 25.476C39.4829 25.0575 38.9515 24.8482 38.3072 24.8482C38.0209 24.8482 37.7924 24.9116 37.6217 25.0382C37.4565 25.1593 37.3739 25.3245 37.3739 25.5338C37.3739 25.6714 37.4317 25.7871 37.5473 25.8807C37.6685 25.9743 37.8227 26.0514 38.0099 26.112C38.1971 26.167 38.4036 26.2221 38.6294 26.2772C38.8606 26.3322 39.0892 26.4011 39.3149 26.4837C39.5462 26.5607 39.7554 26.6571 39.9427 26.7727C40.1299 26.8884 40.2813 27.0481 40.3969 27.2518C40.5181 27.4555 40.5787 27.6978 40.5787 27.9787C40.5787 28.4742 40.3997 28.8817 40.0418 29.2011C39.6839 29.5205 39.1525 29.6802 38.4476 29.6802Z" fill="white"/>
<path d="M43.6327 29.5811H42.6663V24.0718H43.6327V29.5811Z" fill="white"/>
<path d="M50.7757 29.5811H49.8423L46.9679 25.6494V29.5811H46.0015V24.0718H46.9927L49.8093 27.8961V24.0718H50.7757V29.5811Z" fill="white"/>
<path d="M57.7364 28.879C57.2078 29.4131 56.5332 29.6802 55.7128 29.6802C54.8923 29.6802 54.2177 29.4131 53.6891 28.879C53.1605 28.3393 52.8962 27.6565 52.8962 26.8306C52.8962 26.0046 53.1605 25.3245 53.6891 24.7904C54.2177 24.2508 54.8923 23.981 55.7128 23.981C56.5332 23.981 57.2078 24.2508 57.7364 24.7904C58.265 25.3245 58.5293 26.0046 58.5293 26.8306C58.5293 27.6565 58.265 28.3393 57.7364 28.879ZM55.7128 28.8212C56.2579 28.8212 56.6984 28.6339 57.0343 28.2595C57.3702 27.8795 57.5382 27.4032 57.5382 26.8306C57.5382 26.2524 57.3702 25.7761 57.0343 25.4016C56.6984 25.0272 56.2579 24.84 55.7128 24.84C55.1621 24.84 54.7188 25.0272 54.3829 25.4016C54.0525 25.7761 53.8873 26.2524 53.8873 26.8306C53.8873 27.4087 54.0525 27.8851 54.3829 28.2595C54.7188 28.6339 55.1621 28.8212 55.7128 28.8212Z" fill="white"/>
<defs>
<linearGradient id="paint0_linear_915_37827" x1="40.2843" y1="3" x2="40.2843" y2="19.7337" gradientUnits="userSpaceOnUse">
<stop stop-color="#4882D2"/>
<stop offset="1" stop-color="#56E6FD"/>
</linearGradient>
<linearGradient id="paint1_linear_915_37827" x1="40.2569" y1="3" x2="40.2569" y2="19.7337" gradientUnits="userSpaceOnUse">
<stop stop-color="#009EDA"/>
<stop offset="1" stop-color="#56E6FD"/>
</linearGradient>
<linearGradient id="paint2_linear_915_37827" x1="40.2843" y1="3" x2="40.2843" y2="19.7337" gradientUnits="userSpaceOnUse">
<stop stop-color="#4882D2"/>
<stop offset="1" stop-color="#56E6FD"/>
</linearGradient>
<linearGradient id="paint3_linear_915_37827" x1="40.2569" y1="3" x2="40.2569" y2="19.7337" gradientUnits="userSpaceOnUse">
<stop stop-color="#009EDA"/>
<stop offset="1" stop-color="#56E6FD"/>
</linearGradient>
<linearGradient id="paint4_linear_915_37827" x1="40.2843" y1="3" x2="40.2843" y2="19.7337" gradientUnits="userSpaceOnUse">
<stop stop-color="#4882D2"/>
<stop offset="1" stop-color="#56E6FD"/>
</linearGradient>
<linearGradient id="paint5_linear_915_37827" x1="40.2569" y1="3" x2="40.2569" y2="19.7337" gradientUnits="userSpaceOnUse">
<stop stop-color="#009EDA"/>
<stop offset="1" stop-color="#56E6FD"/>
</linearGradient>
<linearGradient id="paint6_linear_915_37827" x1="40.2843" y1="3" x2="40.2843" y2="19.7337" gradientUnits="userSpaceOnUse">
<stop stop-color="#4882D2"/>
<stop offset="1" stop-color="#56E6FD"/>
</linearGradient>
<linearGradient id="paint7_linear_915_37827" x1="40.2569" y1="3" x2="40.2569" y2="19.7337" gradientUnits="userSpaceOnUse">
<stop stop-color="#009EDA"/>
<stop offset="1" stop-color="#56E6FD"/>
</linearGradient>
<linearGradient id="paint8_linear_915_37827" x1="40.2843" y1="3" x2="40.2843" y2="19.7337" gradientUnits="userSpaceOnUse">
<stop stop-color="#4882D2"/>
<stop offset="1" stop-color="#56E6FD"/>
</linearGradient>
<linearGradient id="paint9_linear_915_37827" x1="40.2569" y1="3" x2="40.2569" y2="19.7337" gradientUnits="userSpaceOnUse">
<stop stop-color="#009EDA"/>
<stop offset="1" stop-color="#56E6FD"/>
</linearGradient>
<linearGradient id="paint10_linear_915_37827" x1="40.2843" y1="3" x2="40.2843" y2="19.7337" gradientUnits="userSpaceOnUse">
<stop stop-color="#4882D2"/>
<stop offset="1" stop-color="#56E6FD"/>
</linearGradient>
<linearGradient id="paint11_linear_915_37827" x1="40.2569" y1="3" x2="40.2569" y2="19.7337" gradientUnits="userSpaceOnUse">
<stop stop-color="#009EDA"/>
<stop offset="1" stop-color="#56E6FD"/>
</linearGradient>
</defs>
</svg>
