<svg xmlns="http://www.w3.org/2000/svg" width="8.437" height="8"  xmlns:v="https://vecta.io/nano"><path d="M8.348 3.02a.47.47 0 0 0-.238-.14.73.73 0 0 0-.206-.02H5.537c-.043-.003-.084-.02-.115-.05-.033-.022-.06-.053-.076-.09L4.661.39a.58.58 0 0 0-.1-.21C4.487.065 4.359-.003 4.223 0a.4.4 0 0 0-.339.18.64.64 0 0 0-.1.21l-.687 2.33c-.015.037-.041.069-.075.09-.031.03-.071.047-.114.05H.537c-.095-.002-.19.015-.279.05-.063.023-.119.061-.164.11-.057.067-.088.152-.088.24a.42.42 0 0 0 .111.27.5.5 0 0 0 .166.13L2.19 4.85a.26.26 0 0 1 .089.18c0 .017-.002.034-.005.05l-.743 2.3a.63.63 0 0 0-.035.21.37.37 0 0 0 .079.24c.078.098.196.157.321.16.137-.01.268-.062.373-.15l1.866-1.51a.2.2 0 0 1 .1-.03c.036 0 .07.011.1.03l1.966 1.52a.65.65 0 0 0 .368.14h.013a.39.39 0 0 0 .386-.4c-.003-.075-.018-.149-.044-.22l-.833-2.31c-.005-.016-.007-.033-.007-.05a.2.2 0 0 1 .08-.16l1.9-1.19c.064-.032.12-.076.166-.13.068-.074.106-.17.11-.27 0-.089-.033-.174-.092-.24z" fill="#b2b2b2" fill-rule="evenodd"/></svg>